Land_normalized_Motion_pl05
version=1
nRows=8
nColumns=43
inDegrees=yes
endheader
time		pelvis_tilt		pelvis_list		pelvis_rotation		pelvis_tx		pelvis_ty		pelvis_tz		hip_flexion_r		hip_adduction_r		hip_rotation_r		knee_angle_r		ankle_angle_r		subtalar_angle_r		mtp_angle_r		hip_flexion_l		hip_adduction_l		hip_rotation_l		knee_angle_l		ankle_angle_l		subtalar_angle_l		mtp_angle_l		lumbar_extension		lumbar_bending		lumbar_rotation		neck_flexion		neck_lateral_bending		neck_rotation		arm_flex_r		arm_add_r		arm_rot_r		elbow_flex_r		pro_sup_r		wrist_flex_r		wrist_dev_r		hand_finger_flex_r		arm_flex_l		arm_add_l		arm_rot_l		elbow_flex_l		pro_sup_l		wrist_flex_l		wrist_dev_l		hand_finger_flex_l		
3.405000		2.566092		3.948990		99.068741		-0.036570		0.951858		0.555075		28.301309		-8.304715		-19.180599		-33.643754		-27.832610		-0.826102		17.707200		30.078136		-3.325427		-3.116226		-34.238209		-26.977323		0.283004		24.142244		-32.277434		7.666608		7.455617		-26.114331		6.097801		-11.272097		-47.817529		-6.858839		-27.823241		46.560866		120.008872		-7.011075		-2.660648		-28.315255		-86.479440		-17.055822		-36.115846		59.389449		143.286731		-11.025393		-11.980836		-16.325703		
3.408182		2.564009		4.061040		99.019299		-0.036460		0.939529		0.550857		28.970771		-8.411672		-18.829504		-35.285578		-27.677977		-0.918201		17.694352		30.947613		-3.368537		-2.796501		-36.019980		-26.746170		0.457438		24.313527		-32.647831		7.629956		7.534502		-25.593450		6.074697		-11.296689		-47.059477		-7.211708		-27.606535		46.288136		120.142436		-7.330531		-2.788181		-28.293086		-85.464781		-17.110719		-35.704416		59.492507		142.983674		-11.637465		-12.251724		-16.240741		
3.411364		2.573839		4.076358		98.898348		-0.036256		0.927035		0.546559		29.737623		-8.480585		-18.472899		-36.785916		-27.864530		-1.062324		17.679902		31.864018		-3.451227		-2.599152		-37.671472		-26.768406		0.675191		24.506259		-32.909018		7.566563		7.646053		-25.153352		6.050398		-11.324162		-46.259579		-7.595970		-27.357133		45.995938		120.281268		-7.727055		-2.964904		-28.266113		-84.376330		-17.167445		-35.243803		59.504978		142.562305		-12.400644		-12.566126		-16.124807		
3.414545		2.620186		3.851679		98.735045		-0.035755		0.913738		0.542468		30.865776		-8.457573		-17.838842		-38.274589		-28.336426		-1.285438		17.654186		33.117130		-3.586081		-2.484826		-39.336604		-26.933675		0.905343		24.961196		-32.929773		7.439020		7.723850		-24.438937		5.904953		-11.341308		-45.499245		-8.076625		-26.830769		45.774778		120.502112		-8.341801		-3.295913		-28.128905		-83.362097		-17.225903		-34.601977		59.442489		141.815787		-13.828641		-12.958739		-15.632603		
3.417727		2.572181		4.180542		98.725515		-0.035951		0.901656		0.537800		31.140388		-8.568521		-17.552780		-39.418354		-28.672082		-1.259041		17.653164		33.579441		-3.596494		-2.338296		-40.675516		-27.240432		0.984376		25.058311		-33.427701		7.452438		7.813166		-24.465884		5.792235		-11.330330		-44.776629		-8.503023		-26.610426		45.688061		120.658443		-8.376664		-3.342686		-28.092205		-82.338681		-17.297981		-34.343988		59.889103		141.665457		-14.112620		-13.083275		-15.515757		
3.420909		2.542164		4.336910		98.604976		-0.035548		0.888930		0.533522		31.753231		-8.543565		-16.939776		-40.652286		-28.917303		-1.149061		17.695037		34.306870		-3.677363		-2.220478		-42.071497		-27.382021		1.198670		25.250284		-33.850607		7.326873		7.913442		-23.900385		5.675399		-11.364728		-43.989385		-8.953281		-26.228944		45.646474		121.019399		-8.679297		-3.603380		-28.183621		-81.296532		-17.348540		-34.028745		60.195875		141.323611		-14.834157		-13.418937		-15.411061		
3.424091		2.529441		4.268956		98.359602		-0.034888		0.875668		0.529676		32.720746		-8.396769		-15.992779		-41.979786		-28.662979		-1.021941		17.786305		35.312989		-3.786899		-2.124134		-43.533783		-27.057675		1.513046		25.613553		-34.134393		7.099832		8.032103		-22.798357		5.510598		-11.446915		-43.158987		-9.500093		-25.679056		45.650612		121.542914		-9.211198		-4.028164		-28.335444		-80.186432		-17.308996		-33.638341		60.378401		140.734077		-16.064324		-13.845652		-15.167763		
3.427273		2.520282		4.470283		98.252028		-0.034647		0.863012		0.525632		33.301328		-8.317030		-15.299275		-43.438577		-27.252363		-0.841880		17.860656		36.030091		-3.815325		-1.800718		-45.131424		-25.941794		1.777043		25.787584		-34.668999		7.022914		8.096930		-21.970812		5.369681		-11.515641		-42.291857		-10.037333		-25.333324		45.746217		121.918458		-9.384953		-4.217201		-28.413193		-79.009415		-17.233866		-33.447816		60.816491		140.505708		-16.586987		-13.985234		-15.054588		
